<svg width="213" height="39" viewBox="0 0 213 39" fill="none" xmlns="http://www.w3.org/2000/svg">
<path d="M44.399 4.82405C44.399 5.39605 44.5383 5.89472 44.817 6.32005C45.0957 6.74538 45.433 7.10472 45.829 7.39805C46.2396 7.67672 46.797 8.02872 47.501 8.45405C48.2783 8.92338 48.8723 9.31205 49.283 9.62005C49.7083 9.92805 50.0677 10.324 50.361 10.808C50.669 11.2774 50.823 11.842 50.823 12.502C50.823 13.206 50.647 13.844 50.295 14.416C49.943 14.988 49.4223 15.4427 48.733 15.78C48.0583 16.1027 47.2443 16.264 46.291 16.264C45.1617 16.264 44.1277 16.0074 43.189 15.494C43.1157 15.45 43.0643 15.3987 43.035 15.34C43.0203 15.2814 43.0057 15.1934 42.991 15.076L42.705 12.084C42.6903 12.0254 42.7197 11.9887 42.793 11.974C42.881 11.9594 42.9323 11.9814 42.947 12.04C43.1817 13.096 43.6143 14.0054 44.245 14.768C44.8903 15.5307 45.741 15.912 46.797 15.912C47.5303 15.912 48.1463 15.714 48.645 15.318C49.1583 14.9074 49.415 14.262 49.415 13.382C49.415 12.722 49.2683 12.15 48.975 11.666C48.6816 11.182 48.3223 10.786 47.897 10.478C47.4863 10.1554 46.9217 9.78138 46.203 9.35605C45.499 8.93072 44.9416 8.56405 44.531 8.25605C44.135 7.94805 43.7977 7.55938 43.519 7.09005C43.2403 6.62072 43.101 6.07072 43.101 5.44005C43.101 4.70672 43.2917 4.08338 43.673 3.57005C44.069 3.04205 44.575 2.65338 45.191 2.40405C45.8216 2.14005 46.489 2.00805 47.193 2.00805C48.0583 2.00805 48.9163 2.18405 49.767 2.53605C49.987 2.60938 50.097 2.73405 50.097 2.91005L50.251 5.44005C50.251 5.49872 50.2143 5.52805 50.141 5.52805C50.0677 5.52805 50.0237 5.49872 50.009 5.44005C49.8917 4.67738 49.5763 3.97338 49.063 3.32805C48.5497 2.66805 47.809 2.33805 46.841 2.33805C46.0197 2.33805 45.4037 2.58005 44.993 3.06405C44.597 3.53338 44.399 4.12005 44.399 4.82405Z" fill="#261E1E"/>
<path d="M61.4976 7.50805C61.5416 7.50805 61.5636 7.55205 61.5636 7.64005C61.5636 7.72805 61.5416 7.77205 61.4976 7.77205C61.131 7.77205 60.8156 7.90405 60.5516 8.16805C60.2876 8.43205 60.0383 8.86472 59.8036 9.46605L57.1196 16.616C56.577 18.0387 56.0636 19.146 55.5796 19.938C55.1103 20.7447 54.619 21.3167 54.1056 21.654C53.607 22.006 53.0276 22.182 52.3676 22.182C52.045 22.182 51.781 22.1087 51.5756 21.962C51.3556 21.8154 51.2456 21.6027 51.2456 21.324C51.2456 21.1187 51.3116 20.9574 51.4436 20.84C51.5756 20.7227 51.737 20.664 51.9276 20.664C52.1183 20.664 52.2796 20.686 52.4116 20.73C52.5436 20.774 52.683 20.8474 52.8296 20.9501C52.859 20.9647 52.9396 21.0087 53.0716 21.0821C53.2183 21.1554 53.3943 21.192 53.5996 21.192C53.9516 21.192 54.2816 21.038 54.5896 20.73C54.9123 20.422 55.2496 19.9014 55.6016 19.168C55.9683 18.4494 56.3936 17.4521 56.8776 16.1761L53.5336 9.33405C53.1963 8.68872 52.9396 8.27072 52.7636 8.08005C52.5876 7.87472 52.3603 7.77205 52.0816 7.77205C52.0523 7.77205 52.0376 7.72805 52.0376 7.64005C52.0376 7.55205 52.0523 7.50805 52.0816 7.50805L52.8296 7.53005C53.0056 7.54472 53.2476 7.55205 53.5556 7.55205L54.9636 7.53005C55.169 7.51538 55.455 7.50805 55.8216 7.50805C55.851 7.50805 55.8656 7.55205 55.8656 7.64005C55.8656 7.72805 55.851 7.77205 55.8216 7.77205C54.971 7.77205 54.5456 7.94072 54.5456 8.27805C54.5456 8.36605 54.5823 8.48338 54.6556 8.63005L57.5596 14.592L59.3196 9.53205C59.437 9.18005 59.4956 8.90138 59.4956 8.69605C59.4956 8.35872 59.3636 8.12405 59.0996 7.99205C58.8356 7.84538 58.403 7.77205 57.8016 7.77205C57.7723 7.77205 57.7576 7.72805 57.7576 7.64005C57.7576 7.55205 57.7723 7.50805 57.8016 7.50805C58.1976 7.50805 58.4983 7.51538 58.7036 7.53005L60.0236 7.55205L60.8156 7.53005C60.9623 7.51538 61.1896 7.50805 61.4976 7.50805Z" fill="#261E1E"/>
<path d="M62.4562 16C62.4122 16 62.3902 15.956 62.3902 15.868C62.3902 15.78 62.4122 15.736 62.4562 15.736C62.8522 15.736 63.1455 15.6994 63.3362 15.626C63.5268 15.538 63.6588 15.3914 63.7322 15.186C63.8055 14.966 63.8422 14.6434 63.8422 14.218V2.84405C63.8422 2.31605 63.7908 1.93472 63.6882 1.70005C63.5855 1.46538 63.4022 1.34805 63.1382 1.34805C62.9182 1.34805 62.5808 1.45072 62.1262 1.65605H62.0822C62.0382 1.65605 62.0015 1.61938 61.9722 1.54605C61.9575 1.47272 61.9722 1.42871 62.0162 1.41405L64.8322 0.0720485C64.8615 0.0573821 64.8982 0.0500488 64.9422 0.0500488C64.9715 0.0500488 65.0082 0.0720485 65.0522 0.116048C65.1108 0.145382 65.1402 0.182049 65.1402 0.226049V14.218C65.1402 14.6434 65.1695 14.9587 65.2282 15.164C65.3015 15.3694 65.4335 15.516 65.6242 15.604C65.8148 15.692 66.1082 15.736 66.5042 15.736C66.5482 15.736 66.5702 15.78 66.5702 15.868C66.5702 15.956 66.5482 16 66.5042 16C66.1815 16 65.9175 15.9927 65.7122 15.978L64.4802 15.956L63.2922 15.978C63.0868 15.9927 62.8082 16 62.4562 16Z" fill="#261E1E"/>
<path d="M76.73 7.50805C76.7594 7.50805 76.774 7.55205 76.774 7.64005C76.774 7.72805 76.7594 7.77205 76.73 7.77205C76.3634 7.77205 76.0481 7.89672 75.784 8.14605C75.52 8.38072 75.2707 8.79138 75.036 9.37805L72.286 15.978C72.2567 16.0514 72.176 16.088 72.044 16.088C71.912 16.088 71.8314 16.0514 71.802 15.978L68.722 9.33405C68.4287 8.70338 68.1794 8.28538 67.974 8.08005C67.7834 7.87472 67.5414 7.77205 67.248 7.77205C67.204 7.77205 67.182 7.72805 67.182 7.64005C67.182 7.55205 67.204 7.50805 67.248 7.50805C67.5414 7.50805 67.7687 7.51538 67.93 7.53005L68.766 7.55205L70.196 7.53005C70.416 7.51538 70.7094 7.50805 71.076 7.50805C71.12 7.50805 71.142 7.55205 71.142 7.64005C71.142 7.72805 71.12 7.77205 71.076 7.77205C70.196 7.77205 69.7561 7.94805 69.7561 8.30005C69.7561 8.40272 69.7854 8.51272 69.844 8.63005L72.528 14.306L74.596 9.26805C74.6987 8.98938 74.75 8.77672 74.75 8.63005C74.75 8.33672 74.6107 8.12405 74.332 7.99205C74.0534 7.84538 73.6134 7.77205 73.012 7.77205C72.9827 7.77205 72.968 7.72805 72.968 7.64005C72.968 7.55205 72.9827 7.50805 73.012 7.50805C73.408 7.50805 73.7087 7.51538 73.914 7.53005L75.234 7.55205L76.026 7.53005C76.1727 7.51538 76.4074 7.50805 76.73 7.50805Z" fill="#261E1E"/>
<path d="M85.6593 14.812C85.718 14.812 85.7546 14.8487 85.7693 14.922C85.784 14.9807 85.762 15.0247 85.7033 15.054L83.4373 16.132C83.3786 16.1614 83.32 16.1761 83.2613 16.1761C83.0706 16.1761 82.902 16.0514 82.7553 15.802C82.6086 15.538 82.5133 15.186 82.4693 14.746L81.3253 15.494C80.9586 15.7287 80.636 15.8974 80.3573 16C80.0786 16.1027 79.7853 16.154 79.4773 16.154C78.9346 16.154 78.5093 16.0147 78.2013 15.736C77.908 15.4427 77.7613 15.076 77.7613 14.636C77.7613 14.196 77.9373 13.8147 78.2893 13.492C78.6413 13.1694 79.2206 12.8614 80.0273 12.568L82.4473 11.666V10.17C82.4473 8.52738 81.9853 7.70605 81.0613 7.70605C80.5626 7.70605 80.1813 7.87472 79.9173 8.21205C79.668 8.53472 79.4993 8.90872 79.4113 9.33405C79.3673 9.59805 79.2866 9.81805 79.1693 9.99405C79.052 10.1554 78.854 10.236 78.5753 10.236C78.3406 10.236 78.1573 10.17 78.0253 10.038C77.908 9.90605 77.8493 9.75205 77.8493 9.57605C77.8493 9.22405 78.0766 8.87205 78.5313 8.52005C78.986 8.16805 79.5286 7.87472 80.1593 7.64005C80.79 7.40538 81.3546 7.28805 81.8533 7.28805C82.4546 7.28805 82.9093 7.47872 83.2173 7.86005C83.5253 8.24138 83.6793 8.79138 83.6793 9.51005V13.624C83.6793 14.1374 83.7453 14.5114 83.8773 14.746C84.0093 14.9807 84.2293 15.098 84.5373 15.098C84.816 15.098 85.1753 15.0027 85.6153 14.812H85.6593ZM82.4473 14.438V11.974L80.4013 12.766C79.9906 12.9274 79.69 13.118 79.4993 13.338C79.3233 13.5434 79.2353 13.7927 79.2353 14.086C79.2353 14.438 79.3453 14.7387 79.5653 14.988C79.8 15.2227 80.1006 15.34 80.4673 15.34C80.7606 15.34 81.1126 15.2227 81.5233 14.988L82.4473 14.438Z" fill="#261E1E"/>
<path d="M88.7601 4.73605C88.4521 4.73605 88.2101 4.65538 88.0341 4.49405C87.8728 4.33272 87.7921 4.10538 87.7921 3.81205C87.7921 3.51872 87.8728 3.29138 88.0341 3.13005C88.2101 2.96872 88.4521 2.88805 88.7601 2.88805C89.0534 2.88805 89.2808 2.96872 89.4421 3.13005C89.6034 3.29138 89.6841 3.51872 89.6841 3.81205C89.6841 4.10538 89.6034 4.33272 89.4421 4.49405C89.2808 4.65538 89.0534 4.73605 88.7601 4.73605ZM86.9121 16C86.8828 16 86.8681 15.956 86.8681 15.868C86.8681 15.78 86.8828 15.736 86.9121 15.736C87.3081 15.736 87.6014 15.6994 87.7921 15.626C87.9974 15.538 88.1368 15.3914 88.2101 15.186C88.2834 14.966 88.3201 14.6434 88.3201 14.218V10.104C88.3201 9.57605 88.2614 9.19472 88.1441 8.96005C88.0414 8.72538 87.8581 8.60805 87.5941 8.60805C87.3301 8.60805 87.0001 8.71072 86.6041 8.91605H86.5821C86.5234 8.91605 86.4794 8.87938 86.4501 8.80605C86.4208 8.73272 86.4281 8.68138 86.4721 8.65205L89.3321 7.33205L89.4201 7.31005C89.4494 7.31005 89.4861 7.33205 89.5301 7.37605C89.5741 7.40538 89.5961 7.44205 89.5961 7.48605C89.5961 7.58872 89.5888 7.88205 89.5741 8.36605C89.5594 8.85005 89.5521 9.42205 89.5521 10.082V14.218C89.5521 14.658 89.5888 14.9807 89.6621 15.186C89.7354 15.3914 89.8674 15.538 90.0581 15.626C90.2488 15.6994 90.5421 15.736 90.9381 15.736C90.9821 15.736 91.0041 15.78 91.0041 15.868C91.0041 15.956 90.9821 16 90.9381 16C90.6008 16 90.3294 15.9927 90.1241 15.978L88.9361 15.956L87.7481 15.978C87.5428 15.9927 87.2641 16 86.9121 16Z" fill="#261E1E"/>
<path d="M102.652 15.736C102.696 15.736 102.718 15.78 102.718 15.868C102.718 15.956 102.696 16 102.652 16C102.314 16 102.05 15.9927 101.86 15.978L100.672 15.956L99.4617 15.978C99.271 15.9927 99.007 16 98.6697 16C98.6257 16 98.6037 15.956 98.6037 15.868C98.6037 15.78 98.6257 15.736 98.6697 15.736C99.0657 15.736 99.3591 15.6994 99.5497 15.626C99.7404 15.538 99.8651 15.3914 99.9237 15.186C99.9971 14.9807 100.034 14.658 100.034 14.218V10.654C100.034 9.78872 99.8651 9.15072 99.5277 8.74005C99.2051 8.32938 98.6991 8.12405 98.0097 8.12405C97.5551 8.12405 97.0931 8.24872 96.6237 8.49805C96.1691 8.73272 95.7511 9.06272 95.3697 9.48805V14.218C95.3697 14.658 95.3991 14.9807 95.4577 15.186C95.5311 15.3914 95.6631 15.538 95.8537 15.626C96.0444 15.6994 96.3377 15.736 96.7337 15.736C96.7777 15.736 96.7997 15.78 96.7997 15.868C96.7997 15.956 96.7777 16 96.7337 16C96.3964 16 96.1324 15.9927 95.9417 15.978L94.7537 15.956L93.5437 15.978C93.353 15.9927 93.089 16 92.7517 16C92.7077 16 92.6857 15.956 92.6857 15.868C92.6857 15.78 92.7077 15.736 92.7517 15.736C93.1477 15.736 93.4411 15.6994 93.6317 15.626C93.8224 15.538 93.9471 15.3914 94.0057 15.186C94.0791 14.9807 94.1157 14.658 94.1157 14.218V9.86205C94.1157 9.36338 94.0571 9.00405 93.9397 8.78405C93.8224 8.56405 93.6244 8.45405 93.3457 8.45405C93.1111 8.45405 92.7151 8.56405 92.1577 8.78405H92.1137C92.055 8.78405 92.0111 8.75472 91.9817 8.69605C91.9671 8.62272 91.9891 8.57138 92.0477 8.54205L94.5997 7.33205L94.7317 7.31005C94.8637 7.31005 95.0031 7.47872 95.1497 7.81605C95.2964 8.15338 95.3697 8.58605 95.3697 9.11405C95.9271 8.46872 96.4771 7.99205 97.0197 7.68405C97.5771 7.37605 98.1491 7.22205 98.7357 7.22205C99.5571 7.22205 100.188 7.44938 100.628 7.90405C101.068 8.35872 101.288 9.02605 101.288 9.90605V14.218C101.288 14.658 101.317 14.9807 101.376 15.186C101.449 15.3914 101.581 15.538 101.772 15.626C101.962 15.6994 102.256 15.736 102.652 15.736Z" fill="#261E1E"/>
<path d="M114.949 16.088C114.524 16.088 114.033 16.066 113.475 16.022C113.27 16.0074 113.006 15.9927 112.683 15.978C112.375 15.9634 112.031 15.956 111.649 15.956L110.153 15.978C109.889 15.9927 109.523 16 109.053 16C109.024 16 109.009 15.956 109.009 15.868C109.009 15.78 109.024 15.736 109.053 15.736C109.611 15.736 110.014 15.6994 110.263 15.626C110.527 15.5527 110.703 15.4134 110.791 15.208C110.894 14.988 110.945 14.658 110.945 14.218V4.03205C110.945 3.59205 110.901 3.26938 110.813 3.06405C110.725 2.85872 110.549 2.71938 110.285 2.64605C110.036 2.55805 109.633 2.51405 109.075 2.51405C109.046 2.51405 109.031 2.47005 109.031 2.38205C109.031 2.29405 109.046 2.25005 109.075 2.25005L110.175 2.27205C110.791 2.30138 111.283 2.31605 111.649 2.31605C112.207 2.31605 112.757 2.29405 113.299 2.25005C113.945 2.22072 114.392 2.20605 114.641 2.20605C116.167 2.20605 117.516 2.49938 118.689 3.08605C119.877 3.67272 120.794 4.47205 121.439 5.48405C122.085 6.49605 122.407 7.63272 122.407 8.89405C122.407 10.3167 122.07 11.578 121.395 12.678C120.735 13.7634 119.833 14.6067 118.689 15.208C117.545 15.7947 116.299 16.088 114.949 16.088ZM114.729 15.758C115.903 15.758 116.944 15.516 117.853 15.032C118.763 14.5334 119.467 13.8074 119.965 12.854C120.479 11.886 120.735 10.7274 120.735 9.37805C120.735 8.10205 120.493 6.94338 120.009 5.90205C119.525 4.86072 118.836 4.03938 117.941 3.43805C117.047 2.83671 116.013 2.53605 114.839 2.53605C114.209 2.53605 113.717 2.57271 113.365 2.64605C113.028 2.71938 112.779 2.86605 112.617 3.08605C112.456 3.30605 112.375 3.63605 112.375 4.07605V13.976C112.375 14.416 112.434 14.7607 112.551 15.01C112.683 15.2594 112.918 15.45 113.255 15.582C113.607 15.6994 114.099 15.758 114.729 15.758Z" fill="#261E1E"/>
<path d="M134.208 14.746C134.267 14.746 134.303 14.7827 134.318 14.856C134.347 14.9147 134.333 14.9587 134.274 14.988L131.7 16.198L131.612 16.22C131.465 16.22 131.326 16.0514 131.194 15.714C131.062 15.3767 130.996 14.9367 130.996 14.394V14.306C130.424 14.9514 129.852 15.428 129.28 15.736C128.708 16.0294 128.114 16.1761 127.498 16.1761C126.765 16.1761 126.193 15.9487 125.782 15.494C125.371 15.0247 125.166 14.35 125.166 13.47V10.104C125.166 9.53205 125.115 9.12138 125.012 8.87205C124.909 8.60805 124.741 8.47605 124.506 8.47605C124.301 8.47605 124.051 8.54938 123.758 8.69605H123.736C123.677 8.69605 123.633 8.65938 123.604 8.58605C123.575 8.49805 123.589 8.44672 123.648 8.43205L126.09 7.33205L126.178 7.31005C126.222 7.31005 126.266 7.33205 126.31 7.37605C126.369 7.40538 126.398 7.44205 126.398 7.48605V12.744C126.398 14.4454 127.014 15.296 128.246 15.296C128.715 15.296 129.192 15.1787 129.676 14.944C130.16 14.6947 130.6 14.3574 130.996 13.932V10.104C130.996 9.51738 130.945 9.09938 130.842 8.85005C130.754 8.60072 130.585 8.47605 130.336 8.47605C130.131 8.47605 129.881 8.54938 129.588 8.69605H129.566C129.507 8.69605 129.463 8.65938 129.434 8.58605C129.419 8.49805 129.441 8.44672 129.5 8.43205L131.942 7.33205L132.008 7.31005C132.052 7.31005 132.096 7.33205 132.14 7.37605C132.199 7.40538 132.228 7.44205 132.228 7.48605V13.646C132.228 14.1447 132.287 14.504 132.404 14.724C132.521 14.944 132.719 15.054 132.998 15.054C133.247 15.054 133.636 14.9514 134.164 14.746H134.208Z" fill="#261E1E"/>
<path d="M141.208 7.22205C141.838 7.22205 142.425 7.37605 142.968 7.68405C143.51 7.99205 143.943 8.45405 144.266 9.07005C144.588 9.67138 144.75 10.412 144.75 11.292C144.75 12.348 144.515 13.2574 144.046 14.02C143.591 14.768 142.99 15.3327 142.242 15.714C141.508 16.0954 140.731 16.286 139.91 16.286C138.78 16.286 137.783 15.9634 136.918 15.318L135.246 16.1101H135.202C135.143 16.1101 135.106 16.0807 135.092 16.022C135.077 15.9634 135.092 15.9194 135.136 15.89C135.605 15.5674 135.935 15.2667 136.126 14.988C136.316 14.6947 136.412 14.2767 136.412 13.734V2.86605C136.412 2.33805 136.353 1.95672 136.236 1.72205C136.133 1.48738 135.95 1.37005 135.686 1.37005C135.48 1.37005 135.15 1.46538 134.696 1.65605H134.652C134.608 1.65605 134.571 1.61938 134.542 1.54605C134.527 1.47272 134.542 1.42871 134.586 1.41405L137.336 0.0720485L137.446 0.0500488C137.475 0.0500488 137.512 0.0720485 137.556 0.116048C137.614 0.145382 137.644 0.182049 137.644 0.226049V9.13605C138.201 8.54938 138.758 8.08738 139.316 7.75005C139.873 7.39805 140.504 7.22205 141.208 7.22205ZM140.592 15.868C141.442 15.868 142.102 15.538 142.572 14.878C143.056 14.218 143.298 13.272 143.298 12.04C143.298 10.72 143.041 9.70805 142.528 9.00405C142.014 8.30005 141.332 7.94805 140.482 7.94805C139.983 7.94805 139.506 8.08738 139.052 8.36605C138.597 8.63005 138.128 9.00405 137.644 9.48805V13.096C137.644 13.7414 137.798 14.2694 138.106 14.68C138.428 15.0907 138.817 15.3914 139.272 15.582C139.726 15.7727 140.166 15.868 140.592 15.868Z" fill="#261E1E"/>
<path d="M151.609 7.31005C151.931 7.31005 152.239 7.39805 152.533 7.57405C152.826 7.75005 152.973 7.96272 152.973 8.21205C152.973 8.40272 152.907 8.56405 152.775 8.69605C152.657 8.82805 152.481 8.89405 152.247 8.89405C152.115 8.89405 151.997 8.87205 151.895 8.82805C151.807 8.76938 151.697 8.68872 151.565 8.58605C151.433 8.46872 151.308 8.38072 151.191 8.32205C151.073 8.26338 150.934 8.23405 150.773 8.23405C150.582 8.23405 150.377 8.31472 150.157 8.47605C149.951 8.63738 149.621 8.98205 149.167 9.51005V14.218C149.167 14.658 149.218 14.9807 149.321 15.186C149.438 15.3914 149.643 15.538 149.937 15.626C150.23 15.6994 150.685 15.736 151.301 15.736C151.359 15.736 151.389 15.78 151.389 15.868C151.389 15.956 151.359 16 151.301 16C150.831 16 150.457 15.9927 150.179 15.978L148.551 15.956L147.341 15.978C147.15 15.9927 146.886 16 146.549 16C146.505 16 146.483 15.956 146.483 15.868C146.483 15.78 146.505 15.736 146.549 15.736C146.945 15.736 147.238 15.6994 147.429 15.626C147.619 15.538 147.744 15.3914 147.803 15.186C147.876 14.9807 147.913 14.658 147.913 14.218V9.86205C147.913 9.36338 147.854 9.00405 147.737 8.78405C147.619 8.56405 147.421 8.45405 147.143 8.45405C146.908 8.45405 146.512 8.56405 145.955 8.78405H145.911C145.852 8.78405 145.808 8.75472 145.779 8.69605C145.764 8.62272 145.786 8.57138 145.845 8.54205L148.397 7.33205L148.529 7.31005C148.661 7.31005 148.8 7.47872 148.947 7.81605C149.093 8.15338 149.167 8.58605 149.167 9.11405V9.13605C149.768 8.43205 150.245 7.95538 150.597 7.70605C150.949 7.44205 151.286 7.31005 151.609 7.31005Z" fill="#261E1E"/>
<path d="M162.359 14.812C162.417 14.812 162.454 14.8487 162.469 14.922C162.483 14.9807 162.461 15.0247 162.403 15.054L160.137 16.132C160.078 16.1614 160.019 16.1761 159.961 16.1761C159.77 16.1761 159.601 16.0514 159.455 15.802C159.308 15.538 159.213 15.186 159.169 14.746L158.025 15.494C157.658 15.7287 157.335 15.8974 157.057 16C156.778 16.1027 156.485 16.154 156.177 16.154C155.634 16.154 155.209 16.0147 154.901 15.736C154.607 15.4427 154.461 15.076 154.461 14.636C154.461 14.196 154.637 13.8147 154.989 13.492C155.341 13.1694 155.92 12.8614 156.727 12.568L159.147 11.666V10.17C159.147 8.52738 158.685 7.70605 157.761 7.70605C157.262 7.70605 156.881 7.87472 156.617 8.21205C156.367 8.53472 156.199 8.90872 156.111 9.33405C156.067 9.59805 155.986 9.81805 155.869 9.99405C155.751 10.1554 155.553 10.236 155.275 10.236C155.04 10.236 154.857 10.17 154.725 10.038C154.607 9.90605 154.549 9.75205 154.549 9.57605C154.549 9.22405 154.776 8.87205 155.231 8.52005C155.685 8.16805 156.228 7.87472 156.859 7.64005C157.489 7.40538 158.054 7.28805 158.553 7.28805C159.154 7.28805 159.609 7.47872 159.917 7.86005C160.225 8.24138 160.379 8.79138 160.379 9.51005V13.624C160.379 14.1374 160.445 14.5114 160.577 14.746C160.709 14.9807 160.929 15.098 161.237 15.098C161.515 15.098 161.875 15.0027 162.315 14.812H162.359ZM159.147 14.438V11.974L157.101 12.766C156.69 12.9274 156.389 13.118 156.199 13.338C156.023 13.5434 155.935 13.7927 155.935 14.086C155.935 14.438 156.045 14.7387 156.265 14.988C156.499 15.2227 156.8 15.34 157.167 15.34C157.46 15.34 157.812 15.2227 158.223 14.988L159.147 14.438Z" fill="#261E1E"/>
<path d="M171.712 7.50805C171.756 7.50805 171.778 7.55205 171.778 7.64005C171.778 7.72805 171.756 7.77205 171.712 7.77205C171.346 7.77205 171.03 7.90405 170.766 8.16805C170.502 8.43205 170.253 8.86472 170.018 9.46605L167.334 16.616C166.792 18.0387 166.278 19.146 165.794 19.938C165.325 20.7447 164.834 21.3167 164.32 21.654C163.822 22.006 163.242 22.182 162.582 22.182C162.26 22.182 161.996 22.1087 161.79 21.962C161.57 21.8154 161.46 21.6027 161.46 21.324C161.46 21.1187 161.526 20.9574 161.658 20.84C161.79 20.7227 161.952 20.664 162.142 20.664C162.333 20.664 162.494 20.686 162.626 20.73C162.758 20.774 162.898 20.8474 163.044 20.9501C163.074 20.9647 163.154 21.0087 163.286 21.0821C163.433 21.1554 163.609 21.192 163.814 21.192C164.166 21.192 164.496 21.038 164.804 20.73C165.127 20.422 165.464 19.9014 165.816 19.168C166.183 18.4494 166.608 17.4521 167.092 16.1761L163.748 9.33405C163.411 8.68872 163.154 8.27072 162.978 8.08005C162.802 7.87472 162.575 7.77205 162.296 7.77205C162.267 7.77205 162.252 7.72805 162.252 7.64005C162.252 7.55205 162.267 7.50805 162.296 7.50805L163.044 7.53005C163.22 7.54472 163.462 7.55205 163.77 7.55205L165.178 7.53005C165.384 7.51538 165.67 7.50805 166.036 7.50805C166.066 7.50805 166.08 7.55205 166.08 7.64005C166.08 7.72805 166.066 7.77205 166.036 7.77205C165.186 7.77205 164.76 7.94072 164.76 8.27805C164.76 8.36605 164.797 8.48338 164.87 8.63005L167.774 14.592L169.534 9.53205C169.652 9.18005 169.71 8.90138 169.71 8.69605C169.71 8.35872 169.578 8.12405 169.314 7.99205C169.05 7.84538 168.618 7.77205 168.016 7.77205C167.987 7.77205 167.972 7.72805 167.972 7.64005C167.972 7.55205 167.987 7.50805 168.016 7.50805C168.412 7.50805 168.713 7.51538 168.918 7.53005L170.238 7.55205L171.03 7.53005C171.177 7.51538 171.404 7.50805 171.712 7.50805Z" fill="#261E1E"/>
<path d="M0 32.5H68V31.5H0V32.5Z" fill="#E61B1B"/>
<path d="M82.7971 27.192C83.3171 26.976 83.8171 26.868 84.2971 26.868C84.6971 26.868 85.1091 27.016 85.5331 27.312C85.7651 27.472 86.0251 27.784 86.3131 28.248C86.5051 28.568 86.7491 29.148 87.0451 29.988L88.5091 34.14C88.8451 35.068 89.1851 35.804 89.5291 36.348C89.8811 36.9 90.2011 37.312 90.4891 37.584C90.7771 37.864 91.0771 38.0601 91.3891 38.1721C91.7011 38.2841 91.9571 38.34 92.1571 38.34C92.3651 38.34 92.5491 38.324 92.7091 38.292L92.7211 38.412C92.3371 38.54 91.9611 38.604 91.5931 38.604C91.2251 38.604 90.8571 38.508 90.4891 38.316C90.1211 38.132 89.7771 37.872 89.4571 37.536C88.7691 36.84 88.1851 35.78 87.7051 34.356L87.2371 32.988H83.9491L83.1211 35.1241C83.0811 35.2201 83.0611 35.316 83.0611 35.412C83.0611 35.508 83.1011 35.612 83.1811 35.724C83.2691 35.828 83.4011 35.8801 83.5771 35.8801H83.6731V36H81.2611V35.8801H81.3691C81.5611 35.8801 81.7491 35.824 81.9331 35.712C82.1171 35.592 82.2691 35.416 82.3891 35.184L85.3651 28.056C84.9331 27.44 84.3971 27.132 83.7571 27.132C83.4691 27.132 83.1611 27.192 82.8331 27.312L82.7971 27.192ZM84.0811 32.628H87.1171L86.1691 29.8321C85.9851 29.2961 85.8171 28.876 85.6651 28.572L84.0811 32.628Z" fill="#484848"/>
<path d="M95.2465 27.6H97.6585V27.72H97.5505C97.3505 27.72 97.1545 27.784 96.9625 27.912C96.7705 28.032 96.6185 28.216 96.5065 28.464L93.6145 34.932C93.3185 35.58 93.1705 35.992 93.1705 36.168H93.0625L89.6905 28.476C89.5785 28.22 89.4225 28.032 89.2225 27.912C89.0305 27.784 88.8345 27.72 88.6345 27.72H88.5385V27.6H91.2385V27.72H91.1305C90.9625 27.72 90.8345 27.776 90.7465 27.888C90.6665 27.992 90.6265 28.092 90.6265 28.188C90.6265 28.276 90.6465 28.368 90.6865 28.464L93.1945 34.752L95.8105 28.464C95.8425 28.368 95.8585 28.276 95.8585 28.188C95.8585 28.092 95.8145 27.992 95.7265 27.888C95.6465 27.776 95.5225 27.72 95.3545 27.72H95.2465V27.6Z" fill="#484848"/>
<path d="M98.8714 28.644C99.7274 27.836 100.835 27.432 102.195 27.432C103.563 27.432 104.675 27.836 105.531 28.644C106.387 29.444 106.815 30.496 106.815 31.8C106.815 33.104 106.387 34.16 105.531 34.968C104.675 35.768 103.563 36.168 102.195 36.168C100.835 36.168 99.7274 35.768 98.8714 34.968C98.0154 34.16 97.5874 33.104 97.5874 31.8C97.5874 30.496 98.0154 29.444 98.8714 28.644ZM99.5194 34.704C100.199 35.44 101.091 35.808 102.195 35.808C103.299 35.808 104.187 35.44 104.859 34.704C105.539 33.968 105.879 33 105.879 31.8C105.879 30.6 105.539 29.632 104.859 28.896C104.187 28.16 103.299 27.792 102.195 27.792C101.091 27.792 100.199 28.16 99.5194 28.896C98.8474 29.632 98.5114 30.6 98.5114 31.8C98.5114 33 98.8474 33.968 99.5194 34.704Z" fill="#484848"/>
<path d="M112.4 36.168C111.136 36.16 110.104 35.7561 109.304 34.9561C108.512 34.1561 108.116 33.104 108.116 31.8C108.116 30.488 108.512 29.432 109.304 28.632C110.104 27.832 111.16 27.432 112.472 27.432C113.544 27.432 114.492 27.704 115.316 28.248L115.556 29.9401H115.448C115.272 29.252 114.916 28.724 114.38 28.356C113.844 27.98 113.208 27.792 112.472 27.792C111.424 27.792 110.584 28.156 109.952 28.884C109.328 29.612 109.016 30.576 109.016 31.776C109.016 32.976 109.324 33.944 109.94 34.68C110.564 35.408 111.384 35.784 112.4 35.808C113.296 35.808 114.044 35.564 114.644 35.076C115.292 34.548 115.684 33.688 115.82 32.496H115.916L115.772 34.3801C115.044 35.5721 113.92 36.168 112.4 36.168Z" fill="#484848"/>
<path d="M125.106 35.8801H125.202V36H122.502V35.8801H122.61C122.778 35.8801 122.902 35.828 122.982 35.724C123.07 35.612 123.114 35.508 123.114 35.412C123.114 35.316 123.098 35.2201 123.066 35.1241L122.298 33.084H119.058L118.254 35.1361C118.222 35.2321 118.206 35.328 118.206 35.424C118.206 35.512 118.246 35.612 118.326 35.724C118.414 35.828 118.542 35.8801 118.71 35.8801H118.818V36H116.406V35.8801H116.514C116.714 35.8801 116.91 35.816 117.102 35.688C117.294 35.56 117.45 35.3721 117.57 35.1241L120.282 28.668C120.578 28.02 120.726 27.608 120.726 27.432H120.834L124.05 35.1241C124.162 35.3721 124.314 35.56 124.506 35.688C124.698 35.816 124.898 35.8801 125.106 35.8801ZM119.202 32.724H122.154L120.714 28.872L119.202 32.724Z" fill="#484848"/>
<path d="M131.281 28.668C131.281 28.476 131.213 28.312 131.077 28.176C130.941 28.032 130.781 27.956 130.597 27.948H128.317V35.1361C128.325 35.3441 128.401 35.5201 128.545 35.6641C128.697 35.8081 128.877 35.8801 129.085 35.8801H129.241V36H126.613V35.8801H126.769C126.977 35.8801 127.153 35.8081 127.297 35.6641C127.449 35.5201 127.529 35.348 127.537 35.148V27.948H125.257C125.065 27.956 124.901 28.032 124.765 28.176C124.637 28.312 124.573 28.476 124.573 28.668V28.872L124.453 28.884V27.372C124.573 27.42 124.781 27.468 125.077 27.516C125.373 27.564 125.645 27.588 125.893 27.588H129.949C130.341 27.588 130.665 27.56 130.921 27.504C131.185 27.44 131.345 27.396 131.401 27.372V28.884L131.281 28.872V28.668Z" fill="#484848"/>
<path d="M145 32.5H213V31.5H145V32.5Z" fill="#E61B1B"/>
</svg>
